<svg id="Capa_1" data-name="Capa 1" xmlns="http://www.w3.org/2000/svg" viewBox="0 0 104.8 120.5"><path d="M7.1,49.4v-7c0-2,.7-2.7,2.7-2.7h4.1a1.1,1.1,0,0,0,1.4-1,38.9,38.9,0,0,1,3.9-9.4c.4-.7.4-1.1-.2-1.6l-3.1-3.1c-1.3-1.5-1.3-2.5.1-3.9,3.2-3.2,6.4-6.5,9.7-9.7,1.6-1.6,2.6-1.6,4.2,0l2.9,3a1.1,1.1,0,0,0,1.5.2A39.3,39.3,0,0,1,44,10.1c.7-.1.9-.5.9-1.2V4.2a2.1,2.1,0,0,1,2.3-2.3H62a2,2,0,0,1,2.2,2.3,35.3,35.3,0,0,1,0,4.6,1.2,1.2,0,0,0,1,1.4,35.9,35.9,0,0,1,9.5,3.9,1.3,1.3,0,0,0,1.8-.3l3-3c1.3-1.3,2.4-1.3,3.7,0L93.4,21c1.1,1.1,1.1,2.1,0,3.3a25.7,25.7,0,0,1-3.3,3.3c-.5.6-.6,1-.2,1.6a34,34,0,0,1,3.9,9.5,1.1,1.1,0,0,0,1.4,1h4.5c1.6.1,2.4.8,2.4,2.5V56.6a2.3,2.3,0,0,1-2.5,2.6H95.2a1.2,1.2,0,0,0-1.4,1.1,35.5,35.5,0,0,1-4,9.4,1.1,1.1,0,0,0,.2,1.5l3.4,3.3c1.1,1.2,1,2.2-.1,3.4s-1.9,2-.5,4.4l10,17.3c.8,1.3,1.1,2.5.2,3.8a3.1,3.1,0,0,1-3.5,1.5l-3-.4-9.7-1.3a1.4,1.4,0,0,0-1.7,1l-4.8,11.5a4.1,4.1,0,0,1-2,2.5,3.3,3.3,0,0,1-4.2-1.6l-8.8-15.2c-.7-1.2-1.4-2.4-2-3.6a1.6,1.6,0,0,0-1.5-.8h-14a2.4,2.4,0,0,0-2.3,1.4L35.2,116.3a3.4,3.4,0,0,1-3.3,2.1c-1.6-.1-2.4-1.2-3-2.5l-4.8-11.6c-.4-.9-.8-1.2-1.7-1.1L9.6,104.9a3.2,3.2,0,0,1-3.5-1.5,3.2,3.2,0,0,1,.1-3.6L16.9,81.4c.8-1.5.9-1.5-.4-2.8a.8.8,0,0,1-.4-.4c-1.5-1.5-1.5-2.5,0-4l3-3a1,1,0,0,0,.2-1.5,35.2,35.2,0,0,1-3.9-9.4,1.4,1.4,0,0,0-1.6-1.1h-4c-2-.1-2.7-.8-2.7-2.8Zm7.5-5.5H12.3c-.7,0-1,.3-1,1v9c0,.7.3,1,1,1H16c1.9,0,2.5.4,2.9,2.3A39.5,39.5,0,0,0,24,69.4a2.2,2.2,0,0,1-.3,3.2l-2.9,2.9c-.5.5-.6.8,0,1.4l6.3,6.3a.8.8,0,0,0,1.4,0l3-2.9c1.1-1,1.8-1.2,3.1-.3a40.2,40.2,0,0,0,12.5,5.1c1.5.3,2,1,2,2.6v4c0,.7.2,1,.9,1h9.1c.7,0,1-.3.9-1V87.8c.1-1.7.5-2.4,2.3-2.7A39,39,0,0,0,74.4,80c1.4-.9,2.1-.8,3.4.3l2.8,2.8c.6.6,1,.6,1.5.1l6.3-6.3a.8.8,0,0,0,0-1.4c-1.1-1-2.1-2-3.1-3.1a2,2,0,0,1-.3-2.8,39.9,39.9,0,0,0,5.3-12.8,2.2,2.2,0,0,1,2.4-1.9c1.3,0,2.6-.1,4,0s1.2-.3,1.2-1.2c-.1-2.9-.1-5.8,0-8.6,0-.9-.4-1.2-1.2-1.2s-2.8,0-4.2,0a2,2,0,0,1-2.2-1.7A40.4,40.4,0,0,0,85,29.3a2.2,2.2,0,0,1,.4-3c1-1,1.9-2,2.9-2.9s.6-.9,0-1.5l-6.2-6.3c-.6-.6-1-.5-1.5.1l-3,3a2.2,2.2,0,0,1-2.9.3,38.3,38.3,0,0,0-12.9-5.3A2.2,2.2,0,0,1,60,11.4V7.1c.1-.7-.2-1-.9-1h-9c-.8,0-1,.4-1,1.1v4a2.2,2.2,0,0,1-2,2.5,40.4,40.4,0,0,0-12.5,5.2,2.2,2.2,0,0,1-3.2-.4q-1.5-1.3-3-3a.8.8,0,0,0-1.2,0l-6.4,6.4c-.6.6-.5,1,0,1.4s1.9,1.9,2.8,2.8,1.3,2.1.3,3.6a31.9,31.9,0,0,0-4.6,10.7C18.4,44.5,17.7,43.9,14.6,43.9Zm17.6,68.9.7-1,8.1-14c1.2-2,2.4-4,3.5-6.1s.6-2.6-1.3-3.2a36.7,36.7,0,0,1-8.7-3.7,1.4,1.4,0,0,0-1.9.3c-1,1.1-2.1,2.2-3.2,3.2s-2.2,1-3.3-.1l-4.5-4.5c-.5-.6-.9-.6-1.3.2l-9,15.6c-.1.3-.4.5-.2.8s.5,0,.7,0l12.3-1.6c1.6-.2,2.4.2,3,1.7s1.1,2.7,1.6,4S31,109.8,32.2,112.8ZM98,100.4a.4.4,0,0,0,0-.6L88.7,83.7c-.4-.7-.7-.4-1.1,0s-2.9,2.9-4.4,4.4-2.4,1.3-3.8,0l-3-3a1.2,1.2,0,0,0-1.7-.3,39.9,39.9,0,0,1-9,3.8c-1.5.4-1.9,1.3-1.2,2.8a6.7,6.7,0,0,0,.6,1.2l8.1,14c1.2,2,2.4,4,3.5,6.1a2,2,0,0,0,.7-1.1c1.6-3.7,3.1-7.5,4.7-11.2A2.3,2.3,0,0,1,85,98.7l3.8.5Z"/><path d="M28.9,49.4A25.7,25.7,0,1,1,54.6,75.2,25.6,25.6,0,0,1,28.9,49.4ZM54.5,70.9A21.5,21.5,0,0,0,76.1,49.6C76,37.5,66.7,27.9,54.5,28a21.5,21.5,0,0,0,0,42.9Z"/><path d="M50,62.7a5.2,5.2,0,0,1-4.1-1.9L39,52.1a5.3,5.3,0,0,1,.7-7.3,5.2,5.2,0,0,1,7.1,0,18.9,18.9,0,0,1,2.5,3.1c1.2,1.4,1.2,1.4,2.4.1l9.4-9.4c.5-.4.9-.9,1.5-1.3a5.3,5.3,0,0,1,6.9.3,5.2,5.2,0,0,1,.7,7,5.8,5.8,0,0,1-1,1.2L54.5,60.6C53.2,61.8,51.9,62.8,50,62.7Zm.1-4.2a2.3,2.3,0,0,0,1.2-.8l15-14.9c.6-.6,1-1.3.3-2s-1.4-.2-1.9.4c-2.1,2-4.2,4.1-6.2,6.2l-6.3,6.2c-1.5,1.5-2.6,1.4-3.8-.2l-3.9-4.8c-.5-.7-1.2-1.2-1.9-.5s-.3,1.3.2,1.9l6.1,7.7A1.7,1.7,0,0,0,50.1,58.5Z"/></svg>