<svg id="Capa_1" data-name="Capa 1" xmlns="http://www.w3.org/2000/svg" viewBox="0 0 140 141"><path d="M135.1,83.2a9.3,9.3,0,0,0-10.4-6,2.2,2.2,0,0,1-2.5-1.1l-6.7-10.4a2.1,2.1,0,0,0-3.1-.9,2.2,2.2,0,0,0-.5,3.2l1,1.6,5.5,8.6a2.2,2.2,0,0,1,.1,3,9.2,9.2,0,0,0,4,13.8c1.4.6,1.7,1.5,1.7,2.9,0,6.7-.1,13.5,0,20.2.1,1.9-.6,2.5-2.5,2.5H87.4c-1.8,0-2.5-.6-3.1-2.3a14.6,14.6,0,0,0-14.7-10.7,14.8,14.8,0,0,0-14.3,10.9,2.4,2.4,0,0,1-2.8,2.1H18.4c-2,0-2.7-.6-2.7-2.6.1-11.7.1-23.3.1-34.9,0-4.2,0-4.2,4.2-4.5,1.5-.1,3-.4,2.9-2.3s-1.4-2.1-3-2.1H6.6c-1.4,0-2.4.6-2.5,2.1s1.1,2.1,2.4,2.3a8.9,8.9,0,0,0,2.3,0c1.9-.2,2.5.6,2.5,2.6-.1,6.6,0,13.3,0,19.9v19.8c0,3.5.4,3.9,3.8,3.9H52.2c1.7,0,2.6.4,3.1,2.2A15.2,15.2,0,0,0,69.8,138a15,15,0,0,0,14.5-10.8c.7-2.1,1.7-2.5,3.6-2.5H125c2.9,0,3.4-.5,3.4-3.4.1-7.7.1-15.4,0-23,0-1.8.4-2.8,2.1-3.6A9.3,9.3,0,0,0,135.1,83.2ZM69.8,133.5A10.7,10.7,0,0,1,59,122.8a10.9,10.9,0,0,1,10.9-10.9,10.8,10.8,0,0,1,10.8,10.9A10.6,10.6,0,0,1,69.8,133.5Zm56.5-42a5,5,0,0,1-5.1-4.9,4.9,4.9,0,0,1,5.1-5.1,4.9,4.9,0,0,1,5.1,4.8A5.1,5.1,0,0,1,126.3,91.5Z"/><path d="M130.2,47a2.7,2.7,0,0,1-1.8-2.9c.1-7.7,0-15.5,0-23.2,0-3.3-.4-3.7-3.7-3.7H87.8c-2,0-2.9-.6-3.5-2.6A15.3,15.3,0,0,0,70,3.9a15.2,15.2,0,0,0-14.6,11c-.6,1.9-1.5,2.3-3.3,2.3H16.6c-5.3,0-5.3.1-5.3,5.3V59.3c0,4.3.3,4-3.8,4H6.4c-1.3.2-2.4.7-2.3,2.2s1,2.1,2.4,2.2H20.2c1.5,0,2.8-.6,2.8-2.3s-1.3-2.1-2.7-2.2H18.1c-1.8.2-2.4-.6-2.4-2.3.1-6.2.1-12.4.1-18.6s0-12.4-.1-18.5c0-2,.7-2.6,2.6-2.5,11.2,0,22.5.1,33.7-.1,2,0,2.9.6,3.5,2.6a14.1,14.1,0,0,0,10.7,10c8.1,2.1,15.6-2.3,18.3-10.5.4-1.3.8-2.1,2.4-2h35.3c1.5,0,2,.5,2,2V44.3a2.3,2.3,0,0,1-1.7,2.6,9.3,9.3,0,0,0-5.4,10.6,9.5,9.5,0,0,0,9.1,7.5,9.6,9.6,0,0,0,9.2-7.1A9.3,9.3,0,0,0,130.2,47ZM69.9,30.1A11.1,11.1,0,0,1,59,19.2,10.7,10.7,0,0,1,69.8,8.4,10.6,10.6,0,0,1,80.7,19.1,10.8,10.8,0,0,1,69.9,30.1Zm56.4,30.4a5,5,0,1,1,0-10,5,5,0,1,1,0,10Z"/><path d="M100,74.9a5.4,5.4,0,0,1-.1-7.8c5.5-4.8,4.3-3.9,2.2-9.6s-2.1-5.2-7.7-5.1-6.1-1.9-6-5.9c.1-1.2.1-2.3.1-3.4a2.6,2.6,0,0,0-1.7-2.9l-7.3-3a2.7,2.7,0,0,0-3.1.8l-2.8,3.2c-1.9,1.9-5.6,2-7.4,0-4.9-5.5-3.7-4.8-10-2.3s-5.4,2.1-4.9,7.8A5.1,5.1,0,0,1,46,52.4c-6.6-.1-5.8-1.2-8.5,5.9-1.9,4.7-1.9,4.8,1.9,8.3s3,6-.2,8.8l-2.4,2.2a2.7,2.7,0,0,0-.6,3.2l2.7,6.7a3.2,3.2,0,0,0,3.5,2.1h4.4c2.4.1,4.9,2.9,4.6,5.2-.6,7.3-.3,6.2,5.2,8.5s4.9,2.9,9.3-2.2c.6-.6,1.1-1.5,2.3-1.5s5-.1,6.5,2.5c.5.7,1.2,1.3,1.8,2a2.5,2.5,0,0,0,2.9.8l7.4-3.1A2.5,2.5,0,0,0,88.5,99V96.8c-.8-5.1,2.2-7.8,7-7.3s4.5.2,6.7-5.4S105.2,79.4,100,74.9Zm-1.5,6.9a6.9,6.9,0,0,0-.7,1.5c-.4,1.7-1.4,2.2-3.2,1.9-4-.6-8.9,2.3-10.4,5.9-.6,1.5-.2,3.1-.1,4.6s.4,2.5-1.2,3-3.6,2.5-5.2.1S72.6,95,69,95s-4.9,1.4-6.6,3.4-.9,1.8-1.9,1.6a11.2,11.2,0,0,1-4.6-2c-.6-.5-.3-1.4-.1-2.1,1.2-5.2-2.5-7.7-5.7-10.4-1.5-1.2-3.7-.4-5.5-.3a2,2,0,0,1-2.5-1.7c-.4-1.4-2.5-3.1-.3-4.4,4.6-2.8,4-7.1,3.9-11.4a2.8,2.8,0,0,0-1-2.1l-1.5-1.3c-2.6-2.4-2.7-4-.8-6.9a1.5,1.5,0,0,1,1.8-.7c4,1,7-.6,9.6-3.6s2.4-3.6,2-5.4c-.2-4.2-.1-4.3,3.7-5.5,1-.3,1.8-.3,2.3.6,2.6,4.8,7,4.2,11.3,4a2.5,2.5,0,0,0,2-.9l1.4-1.5c2.7-2.9,3.1-2.9,6.6-1,.8.4,1.2.9,1.1,1.7a8.1,8.1,0,0,1-.1,1.6c-.6,2.7-.1,5,2.2,6.6l.6.6c2,2.9,4.8,3.6,7.9,2.9s2.8,2,3.7,3.5.1,2.2-1,3.2-3,1.9-3.3,3.6a18.6,18.6,0,0,0,0,7.8c.4,1.8,2.3,2.8,3.6,3.9S99.1,80.6,98.5,81.8Z"/><path d="M78.3,122.7c0,1.5-.9,2-2.3,2.1H63.8a2.1,2.1,0,1,1-.2-4.2H76.1A2,2,0,0,1,78.3,122.7Z"/><path d="M78.3,19.3c-.1,1.8-1.6,2.1-3.1,2.1s-2.8.1-3,3a5.9,5.9,0,0,1-.2,1.4,2.1,2.1,0,0,1-2.3,1.9c-1.2-.1-1.7-1-1.9-2.1s.5-2.9-.5-3.8-2.6-.2-3.9-.5a2.1,2.1,0,0,1-2-2.2c.1-1.2.9-1.8,2.2-1.9s2.7.5,3.7-.4.3-2.4.4-3.7.7-2.2,2-2.3a1.9,1.9,0,0,1,2.1,1.4,4.1,4.1,0,0,1,.2,1.6c.1,3.3.1,3.3,3.3,3.3C76.8,17.2,78.4,17.3,78.3,19.3Z"/><path d="M70,49.7A21.3,21.3,0,0,0,48.7,71.1c.1,11.5,9.5,21.3,21.1,21.1s20.8-9.2,21.4-21S81.6,49.6,70,49.7Zm-.1,38.1A16.9,16.9,0,1,1,86.7,71.1,16.7,16.7,0,0,1,69.9,87.8Z"/><path d="M77.1,73.6l-6.6,9.9c-.8,1.3-1.9,2.3-3.4,1.2s-1-2.3-.1-3.6,2.4-3.8,3.7-5.7.8-1.6-.8-1.6H67.3c-1.1,0-2.1.1-3.2,0a2.2,2.2,0,0,1-1.8-3.5c2.3-3.6,4.7-7.2,7.1-10.7.8-1.2,1.9-1.9,3.3-1s1,2.3.2,3.5l-3.6,5.4c-.2.5-.8.9-.5,1.4s1,.4,1.6.4H75C77.8,69.5,78.7,71.3,77.1,73.6Z"/></svg>