<svg id="Capa_1" data-name="Capa 1" xmlns="http://www.w3.org/2000/svg" viewBox="0 0 143 145"><path d="M135.3,19.4l-14.6-5.3-24.9-9a6.5,6.5,0,0,0-7.9,2.5,18.8,18.8,0,0,0-1.2,3L82.2,22.9,84.1,24c-1.8,4.9-3.6,9.7-5.4,14.7a9.2,9.2,0,0,0-7.4-3.9c-3.1,0-5.3,1.5-7.3,3.9-1.8-5.1-3.6-9.9-5.3-14.8l1.8-.9a1.3,1.3,0,0,1-.1-.5c-1.6-4.3-3.1-8.5-4.6-12.7s-5-6.2-9.6-4.5L36.1,9,6.9,19.6a6.5,6.5,0,0,0-4.3,8.2l.9,2.4c1.4,4,2.9,8,4.4,11.9l2.1-.5c1.6,4.5,2.9,9.1,4.9,13.4,2.6,5.8,2.9,11.7,2.3,17.8q-.6,5.5-1.2,11.4l4.2.4c.5-3.7.9-7.3,1.3-10.9h26l.3,4.2h3v8.7h5.5v8.4l3.3.2-2.8,3.4,3.3,2.8c2.3-3.1,5.2-5.5,9.1-6.1a12.6,12.6,0,0,1,10.4,2.8A12.9,12.9,0,0,1,82.3,115a12.5,12.5,0,0,1-7.1,5.5,13.2,13.2,0,0,1-13.1-3.2c-1,1.3-1.8,2.4-2.5,3.5a16.8,16.8,0,0,0,14.5,4.4c6.3-1.1,10.7-4.8,13.6-11.2,2,3.4,3.8,6.5,5.7,9.5a9.3,9.3,0,0,0,2.1,2.7,5.9,5.9,0,0,0,6.5.8,5.7,5.7,0,0,0,3.8-5.2c.1-3.3.1-6.5.1-9.8,0-1.1.1-1.7,1.5-2a11.9,11.9,0,0,0,9.3-11.8,12.1,12.1,0,0,0-10.1-11.5c-4.6-.9-9.1-2.2-13.6-3.3-.4-.1-1-.6-1-.9a33.8,33.8,0,0,1-.1-4.5l3.3-.2V73.7h25.9a4.4,4.4,0,0,1,.2,1c1.3,10.5,2.5,21,3.7,31.5a2,2,0,0,1-.9,1.5l-6.8,4.7a4.6,4.6,0,0,0-1.8,2.3c-1.8,5-3.5,10.1-5.1,15.2-.5,1.5-1.1,2-2.7,2H57.4v4.2h53.7a2.1,2.1,0,0,0,2.4-1.8c1.7-5.2,3.5-10.4,5.1-15.7a7.2,7.2,0,0,1,3.3-4.3c2.3-1.3,4.4-2.9,6.6-4.3a2.1,2.1,0,0,0,1.1-2.4c-1.1-8.9-2.2-17.9-3.1-26.8-.6-5.7-.9-11.4-1.1-17.1a9.1,9.1,0,0,1,.5-3.3c.6-2,1.4-3.9,2.1-5.8l4.8-13.1,2.1.5,4.8-13.3C141.3,24.3,139.7,21,135.3,19.4ZM71.4,39.2a4.2,4.2,0,0,1,4.3,4.2,4.4,4.4,0,1,1-4.3-4.2ZM6.8,26.5c-.5-1.6.5-2.4,1.9-2.9L29,16.2,47.7,9.4c2.4-.9,3.1-.5,4,2s2.2,5.9,3.3,9.1L10.5,36.7C9.2,33.2,7.9,29.8,6.8,26.5ZM14,40,54.5,25.3c.5,1.3.9,2.6,1.5,4L15.5,44.1C15,42.7,14.5,41.5,14,40ZM47.5,69.2H42.9V63H38.5v6.2H34.2v-4H30c-.1,1.2-.2,2.5-.2,4H22l-.2-.5c-.3-3.9-.3-3.9,3.3-5.2L45.8,56l1.7-.5Zm.2-21.3c.1,2.3-.8,3.2-2.8,3.9-7.9,2.7-15.6,5.6-23.5,8.5-.5-1.3-.9-2.6-1.5-4l21.3-7.8-1.4-4.1L18.4,52.2a13.4,13.4,0,0,0-.9-2.4c-.6-1.2-.3-1.8,1-2.3L39,40.1l16.6-6,1.9-.6c.6,1.8,1.3,3.6,2,5.5l-3.8.2C50.9,39.7,47.5,43.1,47.7,47.9Zm4.2,24V48.6c0-3.5,1.7-5.1,5.2-5.2h5.4c1.8,6.3,4.6,8.9,9.4,8.7s7.2-3.3,8.2-8.5c2.4,0,4.9-.2,7.3,0a4,4,0,0,1,3.4,3.9c0,8.7,0,17.2-.1,25.8,0,.1,0,.1-.2.3H52C52,73,51.9,72.4,51.9,71.9Zm3.4,10.2v-4H87.5v4Zm26.8,8.7H60.7v-4H82.1Zm12.5,25.9L90,110.4h11.5v4.4A7.4,7.4,0,0,0,94.6,116.7Zm4.7,6.5a2,2,0,0,1-2-2.2,2,2,0,0,1,2.1-2c1.4,0,2,.8,2.1,2.1S100.6,123.2,99.3,123.2Zm5.5-32.3a7.6,7.6,0,1,1-7.5,7.6A7.5,7.5,0,0,1,104.8,90.9Zm-7.5-1.8c-5.1,5.2-5.7,10.7-1.9,16.9H89.3c-.3,0-.8-.5-.9-.8a18.1,18.1,0,0,0-5.6-10h3.6V86.6C90.3,86.6,93.5,88.4,97.3,89.1Zm23.6-19.9h-9.1v-4h-4.2c-.1,1.2-.1,2.6-.2,4h-4.2V63H98.9v6.2H95.3V55.4l7.2,2.6,17.2,6.3A1.6,1.6,0,0,1,121,66C120.9,67,120.9,68,120.9,69.2Zm3.4-17L103,44.4c-.5,1.4-1,2.6-1.5,4.1l21.3,7.8c-.5,1.3-.9,2.5-1.4,4l-11.6-4.2c-4.3-1.6-8.5-3.2-12.8-4.6-1.5-.5-2-1.2-1.9-2.7.2-4-1.3-7.1-5-8.8a15.6,15.6,0,0,0-4.4-.9,20.7,20.7,0,0,0-2.5,0l2.1-5.7,40.5,14.7Zm2.9-8.1L86.8,29.3l1.4-4L128.7,40C128.2,41.4,127.8,42.7,127.2,44.1Zm8.4-16.8-3.4,9.4L87.7,20.5c1.3-3.5,2.4-6.9,3.8-10.3.6-1.4,1.8-1.4,3.2-.9l28.6,10.4,10.5,3.8C136,24.3,136.4,25.2,135.6,27.3Z"/><path d="M29.8,88.7A27,27,0,0,0,2.4,115.4a26.7,26.7,0,0,0,26.8,27.2A26.9,26.9,0,0,0,56.3,116C56.4,101.2,44.4,88.8,29.8,88.7Zm-.7,49.6A22.6,22.6,0,1,1,51.9,116,22.5,22.5,0,0,1,29.1,138.3Z"/><path d="M71.4,99.6a8.6,8.6,0,1,0,.1,17.2,8.7,8.7,0,0,0,8.5-8.7A8.4,8.4,0,0,0,71.4,99.6Zm.1,12.8a4.3,4.3,0,1,1,4.2-4.2A4.4,4.4,0,0,1,71.5,112.4Z"/><path d="M43.3,78.9c-.1-.3-.6-.9-.8-.9H28.4v4.2H43.3C43.3,81,43.4,79.9,43.3,78.9Z"/><path d="M114.4,82.1v-4H99.5v4Z"/><path d="M56.3,56.5V69.2h30V56.5Zm25.8,8.4H60.7V60.8H82.1Z"/><path d="M38.1,123.1a2.3,2.3,0,0,0-1.2,2.3v6.4H32.5c0-3.5,0-6.9.1-10.3,0-.4.9-.9,1.4-1.1,6.2-2.8,8-10.2,3.8-15.2-.1-.2-.3-.3-.8-.7v7.8H24v-7.9a9.3,9.3,0,0,0,1.8,15.4c2.2,1,2.7,2.2,2.5,4.3s0,5.1,0,7.7H23.9c0-2.2,0-4.3.1-6.3a2.4,2.4,0,0,0-1.3-2.4A14,14,0,0,1,25,98.5c1-.5,2-.8,3.3-1.3V108h4.1V97.3c4.7,1.2,8.2,3.4,10.4,7.5A14,14,0,0,1,38.1,123.1Z"/></svg>