<svg id="Capa_1" data-name="Capa 1" xmlns="http://www.w3.org/2000/svg" viewBox="0 0 111.4 93.9"><path d="M79,69.8a3.7,3.7,0,0,1-2.2-3.6,3.3,3.3,0,0,1,2.3-3.1c1.7-.8,1.9-1.4,1.4-3.4s-1.3-2.3-3-2.1a3.4,3.4,0,0,1-3.6-1.8,3.5,3.5,0,0,1,.1-4.1c1.1-1.4,1-2.2-.1-3.3s-2.5-1.7-3.8-.7a3.5,3.5,0,0,1-4.3.2c-1.5-.8-1.9-2.1-1.8-3.8a2.5,2.5,0,0,0-.7-2c-1.9-1.4-3.6-.9-4.9,1.1A3.7,3.7,0,0,1,56.5,45c-1.9.6-3.9.3-4.8-2a2,2,0,0,0-1.3-1.4,3.1,3.1,0,0,0-4.1,3.2,3.4,3.4,0,0,1-1.9,3.5,3.2,3.2,0,0,1-3.9-.2,2.7,2.7,0,0,0-2.1-.6,3,3,0,0,0-1.9,4.6,3.1,3.1,0,0,1,.6,3.2c-.8,2.2-1.7,2.9-3.7,2.7a4.1,4.1,0,0,0-2.3.5,3.1,3.1,0,0,0,.7,5.1A3.5,3.5,0,0,1,34,67.1a3.2,3.2,0,0,1-2.3,3.3,2.8,2.8,0,0,0-1.4,1.2c-.9,1.9.8,4.2,2.9,4.2a4.9,4.9,0,0,1,2.7.6c1.9,1.3,2.1,3.3.9,5.3a3,3,0,0,0-.5,2.2,2.9,2.9,0,0,0,4.6,1.6,3.5,3.5,0,0,1,4-.1c1.4.7,2.1,1.8,1.7,3.8s.2,1.4.7,1.9a3.1,3.1,0,0,0,5-.8,4.8,4.8,0,0,1,2.1-1.9c2-.8,3.6,0,4.7,1.9a3.1,3.1,0,0,0,1.6,1.6,3,3,0,0,0,3.8-3.1,5.5,5.5,0,0,1,.9-2.9c1.4-1.7,3.1-1.8,5-.6a3.2,3.2,0,0,0,2,.7,3.2,3.2,0,0,0,1.9-4.8,3.6,3.6,0,0,1,0-4.3,3.2,3.2,0,0,1,3.6-1.5,2.8,2.8,0,0,0,2-.8A2.9,2.9,0,0,0,79,69.8ZM55.4,82.9c-8.6.1-15.9-7.4-15.8-16.2A15.8,15.8,0,1,1,55.4,82.9Z"/><path d="M30.9,14.2,11.5,26.9c-.9.5-.6,1-.2,1.5L21.4,43.9c.5.8,1.1,1.5,1.7,2.3L43.2,33ZM27.1,35.8A5.2,5.2,0,0,1,22,30.7a5.3,5.3,0,0,1,5.1-5.1,5.1,5.1,0,0,1,5.1,5.1A5.3,5.3,0,0,1,27.1,35.8Z"/><path d="M80.7,14.2,68.4,33,88.6,46.3C92.8,40,96.8,33.8,101,27.4Zm3.8,21.6a5.1,5.1,0,1,1,5-5.1A5,5,0,0,1,84.5,35.8Z"/><path d="M29.2,67.9c.9-.3,1.4-.6,1.4-1.6s-.5-1.5-1.5-1.7A2,2,0,0,1,28,61.2c.6-.7,1-1.3.4-2.2a1.6,1.6,0,0,0-2.2-.6,2,2,0,0,1-2.6-2.5,4.1,4.1,0,0,0,.3-1l-1.2-1.1a1.3,1.3,0,0,0-1.8.5c-1.4,1.5-3.2,1.1-3.7-.9s-.8-1.1-1.7-1.1A1.4,1.4,0,0,0,14,53.5c-.5,2-2.2,2.6-3.7,1.1a1.3,1.3,0,0,0-1.8-.2c-.9.5-1.1,1.1-.8,2.2a1.9,1.9,0,0,1-2.4,2.6c-1-.3-1.6-.1-2,.8a1.5,1.5,0,0,0,.5,2.1,2.1,2.1,0,0,1-.9,3.6c-.9.2-1.3.6-1.3,1.5A1.6,1.6,0,0,0,3,68.9a2,2,0,0,1,1.1,3.6c-.8.7-.7,1.3-.2,2.1s1.2.7,2.1.5a1.9,1.9,0,0,1,2.6,2.3c-.2,1-.2,1.7.7,2.2a1.8,1.8,0,0,0,2.3-.6,1.9,1.9,0,0,1,3.4.9c.3.9.7,1.3,1.6,1.3s1.4-.4,1.7-1.4a2,2,0,0,1,3.5-1,1.5,1.5,0,0,0,2.1.2c.7-.5,1.1-1.1.6-2a1.6,1.6,0,0,1,.5-2.1,2.9,2.9,0,0,1,2.2-.5,1.5,1.5,0,0,0,1.7-.9,1.5,1.5,0,0,0-.5-2.2A1.9,1.9,0,0,1,29.2,67.9ZM16.1,75.8a8.8,8.8,0,0,1-8.8-9.1,9,9,0,0,1,9-9,8.9,8.9,0,0,1,8.7,9A9.1,9.1,0,0,1,16.1,75.8Z"/><path d="M108.1,65.7c-2.1-.7-2.5-2.3-.9-3.8a1.6,1.6,0,0,0,.2-2.1,1.5,1.5,0,0,0-1.8-.7c-1.9.5-3.1-.8-2.6-2.7,0-.1.2-.3.1-.4s-.5-1.3-1-1.6a1.6,1.6,0,0,0-1.5.1c-1.9,1.5-3.2,1.2-3.9-1.2-.2-.9-.8-1-1.6-1s-1.2.1-1.5.9-2.3,2.6-3.8,1A1.7,1.7,0,0,0,87,55.6c.5,2.1-.8,3.3-2.8,2.6a1.4,1.4,0,0,0-1.9.8,2.7,2.7,0,0,0,.2,1.8c1.4,1.8,1,3.3-1.2,3.8s-1.1.9-1.2,1.7a1.2,1.2,0,0,0,1.2,1.4A2,2,0,0,1,83,69.9c-.1.6-.8,1.1-1,1.7a2.9,2.9,0,0,0-.2,1.8c.2.4,1,1,1.4.9,2.7-.3,3.3.4,2.9,3.1-.1.5.5,1.3.9,1.6a2,2,0,0,0,1.7-.1c1.8-1.5,3.2-1.1,3.8,1.1a1.6,1.6,0,0,0,1.6,1.2,1.3,1.3,0,0,0,1.5-1.1c.7-2.1,2.3-2.4,3.8-.8a1.4,1.4,0,0,0,2,.2c.6-.4,1-.8.8-1.6s.7-3.3,2.8-2.7a1.6,1.6,0,0,0,1.9-.9,1.3,1.3,0,0,0-.3-1.9,1.5,1.5,0,0,1-.5-2.1,3,3,0,0,1,1.7-1.4,2.1,2.1,0,0,0,1.5-1.9C108.9,66.5,108.6,65.9,108.1,65.7ZM94.7,75.8a9,9,0,0,1-8.9-9.1,8.8,8.8,0,0,1,8.6-9,9.1,9.1,0,0,1,.3,18.1Z"/><path d="M69.6,16.2A1.7,1.7,0,0,0,68.5,15c-1.8-.6-2.4-2.2-1-3.6a1.4,1.4,0,0,0,.2-2,1.3,1.3,0,0,0-1.8-.6,2,2,0,0,1-2.6-2.4c.1-.2.1-.5.3-1a5.2,5.2,0,0,0-1.1-1,1.9,1.9,0,0,0-1.5.1c-.5.2-.9.8-1.4.9s-2-.3-2.4-1.7a1.3,1.3,0,0,0-1.7-1.1,1.2,1.2,0,0,0-1.3,1.2,2,2,0,0,1-3.5,1,1.5,1.5,0,0,0-2.1-.2c-.7.4-.8.9-.6,1.7s-.6,3-2.6,2.5a1.5,1.5,0,0,0-1.8.9,1.4,1.4,0,0,0,.3,1.8,3.1,3.1,0,0,1,.8,1.5A1.8,1.8,0,0,1,43,15a1.3,1.3,0,0,0-1.1,1.6,2.1,2.1,0,0,0,1,1.4c2.1.7,2.5,2,1,3.7a1.4,1.4,0,0,0,0,2,1.2,1.2,0,0,0,1.6.6c1.9-.6,3.1.6,2.6,2.5a1.5,1.5,0,0,0,.8,1.8,1.4,1.4,0,0,0,1.9-.3c1.3-1.4,2.9-.9,3.5.9,0,.1,0,.4.2.4a3.3,3.3,0,0,0,1.6.7,1.3,1.3,0,0,0,1.1-.8c.8-2.3,2-2.6,3.9-1a1.4,1.4,0,0,0,1.8-.1,1.7,1.7,0,0,0,.6-1.5c-.5-2.2.4-3.1,2.7-2.8a2.1,2.1,0,0,0,1.6-.8,1.5,1.5,0,0,0-.2-1.7c-1.4-1.6-1.1-3,1-3.7A1.3,1.3,0,0,0,69.6,16.2Zm-13.8,9a8.7,8.7,0,0,1-8.5-8.7,8.5,8.5,0,0,1,8.4-8.7,8.8,8.8,0,0,1,8.6,8.8A8.6,8.6,0,0,1,55.8,25.2Z"/><path d="M81.8,13.2c1.4-3,1.4-3,4-1.3l16.9,11,.9.7-1.7,2.7Z"/><path d="M7.2,22.4,5.4,19.6,25.6,6.4l1.8,2.7Z"/><path d="M106.2,19.6l-1.8,2.8L84.2,9.1,86,6.4Z"/><path d="M9.7,26.4,7.9,23.6,28.1,10.4l1.8,2.7Z"/><path d="M74.8,39.2l5.6,3.6c-1,1.9-1.9,3.8-2.9,5.6l-7.1-3.6C71.8,42.9,73.3,41.1,74.8,39.2Z"/><path d="M33.9,48l-2.7-5.2,5.6-3.7L41,44.5Z"/><path d="M64.5,66.6a9,9,0,0,1-8.9,9.1,8.7,8.7,0,0,1-8.7-8.9,8.8,8.8,0,1,1,17.6-.2Z"/><path d="M30.8,30.7a3.5,3.5,0,0,1-3.6,3.7,3.7,3.7,0,0,1-3.8-3.8A3.7,3.7,0,0,1,27.2,27,3.5,3.5,0,0,1,30.8,30.7Z"/><path d="M88.2,30.8a3.7,3.7,0,0,1-7.4-.1A3.6,3.6,0,0,1,84.5,27,3.7,3.7,0,0,1,88.2,30.8Z"/><path d="M21.2,66.7a5.1,5.1,0,0,1-5.1,5.1,4.8,4.8,0,0,1-4.7-5,4.9,4.9,0,0,1,5.1-5A4.8,4.8,0,0,1,21.2,66.7Z"/><path d="M99.4,67a4.7,4.7,0,0,1-4.9,4.7,5.2,5.2,0,0,1-5-5.1,5,5,0,0,1,5-4.9A5.1,5.1,0,0,1,99.4,67Z"/><path d="M60.4,16.7a4.8,4.8,0,0,1-4.7,4.7,5,5,0,0,1-4.8-4.9,4.8,4.8,0,0,1,4.7-4.8A5,5,0,0,1,60.4,16.7Z"/></svg>