<svg id="Capa_1" data-name="Capa 1" xmlns="http://www.w3.org/2000/svg" xmlns:xlink="http://www.w3.org/1999/xlink" viewBox="0 0 112.3 114.2"><image width="1276" height="1650" transform="translate(-368.2 98.1) scale(0.48)" xlink:href="Logo%20Corsomosa.png"/><path d="M50.5,110c-.3-2.8-.7-5.4-.9-8.1a2,2,0,0,0-1.9-2.2,42.4,42.4,0,0,1-13.3-5.8L26.7,100,16.6,89.9c1.7-2.1,3.4-4.5,5.3-6.7a1.5,1.5,0,0,0,.1-2.1,41.2,41.2,0,0,1-5.3-12.6,2.3,2.3,0,0,0-1.4-1.3c-2.9-.5-5.8-.8-8.7-1.1V51.9c2.8-.3,5.6-.8,8.5-1,1.1-.1,1.4-.5,1.7-1.5.8-2.9,1.8-5.6,2.8-8.6L31,49.6a29.1,29.1,0,0,0-.3,18c3.1,10.2,12.8,18,23.4,19.4A28.4,28.4,0,0,0,85.5,63.6,28.1,28.1,0,0,0,62.9,31.3a27.3,27.3,0,0,0-12.7.5c-.6.2-1.5.2-1.8-.2L38.8,21.2a94.9,94.9,0,0,1,9.1-2.9c1.2-.4,1.6-.9,1.7-2s.5-4.7.7-7.1c.1-.9.4-1.3,1.4-1.3,4,0,8-.1,11.9,0a1.8,1.8,0,0,1,1.3,1.2c.3,2.3.6,4.7.8,7.1a2,2,0,0,0,1.8,2.1A40.3,40.3,0,0,1,80.8,24l7.7-5.9,10,10.1-4.8,6.2c-.8,1-1,1.6-.3,2.8a39.5,39.5,0,0,1,5.1,12.2c.2,1.2.8,1.4,1.8,1.5l8.4,1V66.1l-8.7,1c-1,.1-1.3.6-1.6,1.5A37.4,37.4,0,0,1,93.3,81a1.6,1.6,0,0,0,.2,2.3l5.2,6.6L88.6,100l-7.8-6.1A40.1,40.1,0,0,1,67,99.8c-1.1.3-1.2,1-1.3,1.9l-.9,8.3Z"/><path d="M56.1,45.2a2.3,2.3,0,0,1-2.1-.5c-4-4-7.9-8.2-11.9-12.3L17.1,6.3c-3.3-3.5-6.5-3.4-10,0a4.7,4.7,0,0,1-1,1c-3.8,3.9-3.8,7,.2,10.8L43.7,53.8a1.8,1.8,0,0,1,.5,2.3A16.9,16.9,0,0,0,52,76.7a16.1,16.1,0,0,0,10.2,2L54,67.3q-2.7-3.9,1.2-6.9l5.2-3.7c2.9-2,5.2-1.6,7.3,1.3l7.9,10.9h.5a45.2,45.2,0,0,0,1.2-6.4C78,51.2,67.3,42.7,56.1,45.2ZM12.9,17A3.8,3.8,0,0,1,9,13.2a3.8,3.8,0,0,1,3.8-3.7,3.8,3.8,0,0,1,3.8,3.8A3.6,3.6,0,0,1,12.9,17Z"/></svg>