<svg xmlns="http://www.w3.org/2000/svg" viewBox="0 0 169.1 169.9"><g id="Capa_2" data-name="Capa 2"><path d="M137.6,64.4l-9.4-4.5c-1.9-1.1-3.2-2.7-1.9-4.9s2.8-2.2,4.7-1.2a31.3,31.3,0,0,0,3.2,1.5c9.6,4.6,9.6,4.6,15.5-4.4s5.9-9-3.9-13.5L129,29.8c-2-1-4-2.3-2.9-5s3.5-2,5.6-1.1l29.5,13.4c3.3,1.5,3.4,3.7,1.7,6.4-3.8,5.7-7.3,11.6-11.3,17.1-2,2.7-2.1,4.8-.3,7.6,3.9,6.4,7.3,13,11.1,19.5,2.1,3.5,1.5,6.3-2.3,7.5-10.9,3.3-12.9,10.6-12.3,21.2.9,16.4,3.3,12.7-12.2,21s-31.5,16.5-47.2,25c-3.3,1.8-5.9,1.7-9.2-.1q-27-14.6-54.2-28.7c-4-2-5.6-4.5-5.3-9,.3-6.1-.1-12.3.2-18.5.1-3.2-.7-5.3-3.9-6.5s-5.3-2.9-8-4.1-4.1-4.3-2.2-7.6c3.9-6.8,7.7-13.6,11.8-20.3,1.3-2.3,1.4-4-.2-6.3C13.5,55.7,10,49.8,6.3,44.2c-2.3-3.4-2.1-5.7,2-7.4L37,24c2.2-1,4.7-1.8,6.1.9S41.9,29,39.9,30L16.7,40.4c-2.7,1.2-3.8,2.4-1.4,4.9A30,30,0,0,1,17.8,49c2.4,3.5,4,8.4,7.3,9.8s7-2.6,10.6-4.2c2.1-.8,4.4-1.4,5.7,1.1s-.6,3.9-2.8,4.9l-7.4,3.6c5.1,2.9,9.5,5.4,14,7.8l36,19.3c1.8,1,3.3,1.9,5.5.7ZM25.5,69.1c-1.5.1-1.8,1.2-2.3,2-3.1,5.5-6.1,11-9.4,16.4-1.4,2.3-.4,3,1.5,4q24.7,13.1,49.2,26.3c2.2,1.1,3.3,1.2,4.6-1.2,2.7-5,5.5-9.9,8.6-14.6,1.7-2.8,1.4-4.1-1.5-5.7-16-8.4-31.9-17.1-47.8-25.7Zm130,20a14.2,14.2,0,0,0-.8-1.8c-3.2-5.5-6.4-10.9-9.4-16.4-1.1-2-2.1-2.1-3.9-1.1-16.7,9.1-33.3,18-50,26.9-1.8,1-2.4,1.8-1.2,3.8,3.3,5.4,6.4,10.8,9.4,16.4,1.2,2.1,2.3,1.9,4,.9l50-26.7C154.4,90.7,155.6,90.4,155.5,89.1ZM80.8,111.9l-1.2-.4c-2.3,3.8-4.7,7.6-6.7,11.5s-4.2,4.7-8.3,2.5c-11.3-6.3-22.8-12.2-34.2-18.4-3-1.6-4.1-1.3-3.9,2.3s.2,8.7,0,13,1,4.9,3.7,6.2c7.4,3.8,14.7,7.7,22,11.6l25.2,13.2c1.5.8,3.4,2.5,3.4-1.2Zm8.1-.4-1.2.3v40.8c0,2.8,1.5,1.8,2.9,1.1l49-25.8a3.3,3.3,0,0,0,2.2-3V106.1c-2.3-.2-3.6,1-5,1.8-11,5.8-22.1,11.5-33,17.5-3.8,2.1-6,1.6-8-2.2S91.2,115.4,88.9,111.5Z"/><path d="M119.7,50.7c-.3.6-.7,1.5-1.2,2.4l-5.6,9.4c-4,6.7-4,6.7-10.9,3.2-3.8-2-5.1-1.2-5.3,3-.4,7.7-.4,7.7-8.3,7.7-3.9,0-7.7-.2-11.5,0s-5.8-1.2-5.2-5.3a10.7,10.7,0,0,0-.1-2.5c-.4-4.2-1.8-4.9-5.4-2.9-6.7,3.7-6.7,3.7-10.5-2.8-1.8-3-3.5-6.1-5.4-8.9s-1.6-5.6,1.9-7.6c6.5-3.6,6.5-5.2,0-8.8-3.8-2.1-4.4-4.5-2.2-8.1a114.3,114.3,0,0,0,6.2-10.7c1.9-3.7,4-4.3,7.6-2.2,6.5,3.8,7.4,3.3,7.5-4.4,0-3.8,1.3-5.4,5.3-5.2s9.6.2,14.4,0,5.7,1.3,5.7,5.5c0,6.8,1,7.4,7.1,4,3.6-2,6-1.8,8,2.2a105,105,0,0,0,6.5,11.2c2.1,3.2,1.5,5.3-1.9,7.2-6.7,4-6.6,4.9,0,9.2C118,47.3,119.7,48.1,119.7,50.7ZM111.6,31c-1.3-2.2-2.5-5-4.5-6.8s-3.1,1-4.7,1.7c-4.7,2.1-11.8-2.5-11.7-8s-1.9-5-5.2-4.6-7.3-2-7.3,4.3A8.7,8.7,0,0,1,65,24.8c-5.6-3.4-4.7,2.6-6.7,4.3s-.7,3.3,1.4,4.6c5.7,3.3,5.9,12.1.3,15.4-2.4,1.5-3.9,2.8-1.4,5.2s1.5,7.3,6.8,4.1,13.1,1,13,7S81.9,69.8,85,70s5.8,0,5.7-4.6,7.5-10.1,12.3-6.8,5.1,0,6.6-2.5,3.5-4.4-.7-6.6-5-11.9-.1-15.2C110,33.5,111.8,33.3,111.6,31Z"/><path d="M118.8,130.5a3.4,3.4,0,0,1-2.3,3.8L102,140.7c-1.8.8-3.6.8-4.6-1.3s.2-3.8,2.2-4.7c4.6-2.2,9.3-4.3,14-6.2C116,127.5,118.2,127.6,118.8,130.5Z"/><path d="M84.4,30a12,12,0,0,1,12,12A12.4,12.4,0,0,1,84.2,54.1,12.7,12.7,0,0,1,72.1,41.8C72,35.2,77.5,30,84.4,30Zm-.1,17.3c3.2-.3,5.3-2.1,5.3-5.3a5.1,5.1,0,0,0-5.1-5.5c-3.4-.1-5.8,2-5.7,5.5S81,47,84.3,47.3Z"/></g></svg>